<svg xmlns="http://www.w3.org/2000/svg" viewBox="0 0 512 512">
  <rect width="512" height="512" rx="112" fill="#0f766e"/>
  <rect x="96" y="148" width="320" height="232" rx="36" fill="#ecfdf8"/>
  <rect x="96" y="148" width="320" height="64" rx="36" fill="#14b8a6"/>
  <rect x="96" y="180" width="320" height="32" fill="#14b8a6"/>
  <circle cx="368" cy="180" r="18" fill="#fbbf24"/>
  <rect x="140" y="248" width="140" height="18" rx="9" fill="#0f766e"/>
  <rect x="140" y="284" width="92" height="14" rx="7" fill="#99f6e4"/>
  <path d="M332 300c0-28 22-48 48-48s48 20 48 48c0 18-10 32-24 40v20c0 8-8 16-24 16s-24-8-24-16v-20c-14-8-24-22-24-40z" fill="#f59e0b"/>
</svg>
